<svg xmlns="http://www.w3.org/2000/svg" viewBox="0 0 512 512" width="100%" height="100%">
  <!-- Solid blocks group -->
  <g fill="#00FF85">
    <!-- Row 0 -->
    <rect x="88" y="40" width="48" height="72" />
    <rect x="136" y="40" width="48" height="72" />
    <rect x="184" y="40" width="48" height="72" />
    <rect x="232" y="40" width="48" height="72" />
    <rect x="280" y="40" width="48" height="72" />
    <rect x="328" y="40" width="48" height="72" />

    <!-- Row 1 -->
    <rect x="40" y="112" width="48" height="72" />
    <rect x="88" y="112" width="48" height="72" />
    <rect x="328" y="112" width="48" height="72" />
    <rect x="376" y="112" width="48" height="72" />

    <!-- Row 2 -->
    <rect x="40" y="184" width="48" height="72" />
    <rect x="88" y="184" width="48" height="72" />
    <rect x="328" y="184" width="48" height="72" />
    <rect x="376" y="184" width="48" height="72" />

    <!-- Row 3 -->
    <rect x="40" y="256" width="48" height="72" />
    <rect x="88" y="256" width="48" height="72" />
    <rect x="328" y="256" width="48" height="72" />
    <rect x="376" y="256" width="48" height="72" />

    <!-- Row 4 -->
    <rect x="88" y="328" width="48" height="72" />
    <rect x="136" y="328" width="48" height="72" />
    <rect x="184" y="328" width="48" height="72" />
    <rect x="232" y="328" width="48" height="72" />
    <rect x="280" y="328" width="48" height="72" />
    <rect x="328" y="328" width="48" height="72" />
  </g>

  <!-- Double line borders group -->
  <g stroke="#00FF85" stroke-width="8" fill="none" stroke-linecap="round" stroke-linejoin="round">
    <!-- Row 0: col 7 (╗) -->
    <path d="M 376,64 L 408,64 L 408,112" />
    <path d="M 376,88 L 392,88 L 392,112" />

    <!-- Row 1: col 2 (╔) -->
    <path d="M 152,184 L 152,136 L 184,136" />
    <path d="M 168,184 L 168,160 L 184,160" />
    <!-- Row 1: col 3 (═) -->
    <line x1="184" y1="136" x2="232" y2="136" />
    <line x1="184" y1="160" x2="232" y2="160" />
    <!-- Row 1: col 4 (═) -->
    <line x1="232" y1="136" x2="280" y2="136" />
    <line x1="232" y1="160" x2="280" y2="160" />
    <!-- Row 1: col 5 (═) -->
    <line x1="280" y1="136" x2="328" y2="136" />
    <line x1="280" y1="160" x2="328" y2="160" />
    <!-- Row 1: col 8 (╗) -->
    <path d="M 424,136 L 456,136 L 456,184" />
    <path d="M 424,160 L 440,160 L 440,184" />

    <!-- Row 2: col 2 (║) -->
    <line x1="152" y1="184" x2="152" y2="256" />
    <line x1="168" y1="184" x2="168" y2="256" />
    <!-- Row 2: col 8 (║) -->
    <line x1="440" y1="184" x2="440" y2="256" />
    <line x1="456" y1="184" x2="456" y2="256" />

    <!-- Row 3: col 2 (║) -->
    <line x1="152" y1="256" x2="152" y2="328" />
    <line x1="168" y1="256" x2="168" y2="328" />
    <!-- Row 3: col 8 (║) -->
    <line x1="440" y1="256" x2="440" y2="328" />
    <line x1="456" y1="256" x2="456" y2="328" />

    <!-- Row 4: col 0 (╚) -->
    <path d="M 56,328 L 56,376 L 88,376" />
    <path d="M 72,328 L 72,352 L 88,352" />
    <!-- Row 4: col 7 (╔) -->
    <path d="M 392,400 L 392,352 L 424,352" />
    <path d="M 408,400 L 408,376 L 424,376" />
    <!-- Row 4: col 8 (╝) -->
    <path d="M 456,328 L 456,376 L 424,376" />
    <path d="M 440,328 L 440,352 L 424,352" />

    <!-- Row 5: col 1 (╚) -->
    <path d="M 104,400 L 104,448 L 136,448" />
    <path d="M 120,400 L 120,424 L 136,424" />
    <!-- Row 5: col 2 (═) -->
    <line x1="136" y1="424" x2="184" y2="424" />
    <line x1="136" y1="448" x2="184" y2="448" />
    <!-- Row 5: col 3 (═) -->
    <line x1="184" y1="424" x2="232" y2="424" />
    <line x1="184" y1="448" x2="232" y2="448" />
    <!-- Row 5: col 4 (═) -->
    <line x1="232" y1="424" x2="280" y2="424" />
    <line x1="232" y1="448" x2="280" y2="448" />
    <!-- Row 5: col 5 (═) -->
    <line x1="280" y1="424" x2="328" y2="424" />
    <line x1="280" y1="448" x2="328" y2="448" />
    <!-- Row 5: col 6 (═) -->
    <line x1="328" y1="424" x2="376" y2="424" />
    <line x1="328" y1="448" x2="376" y2="448" />
    <!-- Row 5: col 7 (╝) -->
    <path d="M 408,400 L 408,448 L 376,448" />
    <path d="M 392,400 L 392,424 L 376,424" />
  </g>
</svg>
