<svg xmlns="http://www.w3.org/2000/svg" viewBox="0 0 512 512" width="100%" height="100%">
  <!-- Solid blocks group -->
  <g fill="#00FF85">
    <!-- Row 0 -->
    <rect x="88" y="40" width="48" height="72" />
    <rect x="136" y="40" width="48" height="72" />
    <rect x="184" y="40" width="48" height="72" />
    <rect x="232" y="40" width="48" height="72" />
    <rect x="280" y="40" width="48" height="72" />
    <rect x="328" y="40" width="48" height="72" />

    <!-- Row 1 -->
    <rect x="40" y="112" width="48" height="72" />
    <rect x="88" y="112" width="48" height="72" />
    <rect x="328" y="112" width="48" height="72" />
    <rect x="376" y="112" width="48" height="72" />

    <!-- Row 2 -->
    <rect x="40" y="184" width="48" height="72" />
    <rect x="88" y="184" width="48" height="72" />
    <rect x="328" y="184" width="48" height="72" />
    <rect x="376" y="184" width="48" height="72" />

    <!-- Row 3 -->
    <rect x="40" y="256" width="48" height="72" />
    <rect x="88" y="256" width="48" height="72" />
    <rect x="328" y="256" width="48" height="72" />
    <rect x="376" y="256" width="48" height="72" />

    <!-- Row 4 -->
    <rect x="88" y="328" width="48" height="72" />
    <rect x="136" y="328" width="48" height="72" />
    <rect x="184" y="328" width="48" height="72" />
    <rect x="232" y="328" width="48" height="72" />
    <rect x="280" y="328" width="48" height="72" />
    <rect x="328" y="328" width="48" height="72" />
  </g>

  <!-- Double line borders group - Decomposed with tight offsets to align perfectly -->
  <g stroke="#00FF85" stroke-width="5" fill="none" stroke-linecap="round" stroke-linejoin="round">
    <!-- Row 0: col 7 (╗) -->
    <line x1="376" y1="52" x2="396" y2="52" fill="none" />
    <line x1="396" y1="52" x2="396" y2="112" fill="none" />
    <line x1="376" y1="68" x2="384" y2="68" fill="none" />
    <line x1="384" y1="68" x2="384" y2="112" fill="none" />

    <!-- Row 1: col 2 (╔) -->
    <line x1="144" y1="124" x2="144" y2="184" fill="none" />
    <line x1="144" y1="124" x2="184" y2="124" fill="none" />
    <line x1="156" y1="140" x2="156" y2="184" fill="none" />
    <line x1="156" y1="140" x2="184" y2="140" fill="none" />
    <!-- Row 1: col 3 (═) -->
    <line x1="184" y1="124" x2="232" y2="124" fill="none" />
    <line x1="184" y1="140" x2="232" y2="140" fill="none" />
    <!-- Row 1: col 4 (═) -->
    <line x1="232" y1="124" x2="280" y2="124" fill="none" />
    <line x1="232" y1="140" x2="280" y2="140" fill="none" />
    <!-- Row 1: col 5 (═) -->
    <line x1="280" y1="124" x2="328" y2="124" fill="none" />
    <line x1="280" y1="140" x2="328" y2="140" fill="none" />
    <!-- Row 1: col 8 (╗) -->
    <line x1="424" y1="124" x2="444" y2="124" fill="none" />
    <line x1="444" y1="124" x2="444" y2="184" fill="none" />
    <line x1="424" y1="140" x2="432" y2="140" fill="none" />
    <line x1="432" y1="140" x2="432" y2="184" fill="none" />

    <!-- Row 2: col 2 (║) -->
    <line x1="144" y1="184" x2="144" y2="256" fill="none" />
    <line x1="156" y1="184" x2="156" y2="256" fill="none" />
    <!-- Row 2: col 8 (║) -->
    <line x1="432" y1="184" x2="432" y2="256" fill="none" />
    <line x1="444" y1="184" x2="444" y2="256" fill="none" />

    <!-- Row 3: col 2 (║) -->
    <line x1="144" y1="256" x2="144" y2="328" fill="none" />
    <line x1="156" y1="256" x2="156" y2="328" fill="none" />
    <!-- Row 3: col 8 (║) -->
    <line x1="432" y1="256" x2="432" y2="328" fill="none" />
    <line x1="444" y1="256" x2="444" y2="328" fill="none" />

    <!-- Row 4: col 0 (╚) -->
    <line x1="48" y1="328" x2="48" y2="376" fill="none" />
    <line x1="48" y1="376" x2="88" y2="376" fill="none" />
    <line x1="60" y1="328" x2="60" y2="360" fill="none" />
    <line x1="60" y1="360" x2="88" y2="360" fill="none" />
    <!-- Row 4: col 7 (╔) -->
    <line x1="396" y1="352" x2="396" y2="400" fill="none" />
    <line x1="396" y1="352" x2="424" y2="352" fill="none" />
    <line x1="408" y1="376" x2="408" y2="400" fill="none" />
    <line x1="408" y1="376" x2="424" y2="376" fill="none" />
    <!-- Row 4: col 8 (╝) -->
    <line x1="444" y1="328" x2="444" y2="376" fill="none" />
    <line x1="444" y1="376" x2="424" y2="376" fill="none" />
    <line x1="432" y1="328" x2="432" y2="360" fill="none" />
    <line x1="432" y1="360" x2="424" y2="360" fill="none" />

    <!-- Row 5: col 1 (╚) -->
    <line x1="96" y1="400" x2="96" y2="448" fill="none" />
    <line x1="96" y1="448" x2="136" y2="448" fill="none" />
    <line x1="108" y1="400" x2="108" y2="424" fill="none" />
    <line x1="108" y1="424" x2="136" y2="424" fill="none" />
    <!-- Row 5: col 2 (═) -->
    <line x1="136" y1="424" x2="184" y2="424" fill="none" />
    <line x1="136" y1="448" x2="184" y2="448" fill="none" />
    <!-- Row 5: col 3 (═) -->
    <line x1="184" y1="424" x2="232" y2="424" fill="none" />
    <line x1="184" y1="448" x2="232" y2="448" fill="none" />
    <!-- Row 5: col 4 (═) -->
    <line x1="232" y1="424" x2="280" y2="424" fill="none" />
    <line x1="232" y1="448" x2="280" y2="448" fill="none" />
    <!-- Row 5: col 5 (═) -->
    <line x1="280" y1="424" x2="328" y2="424" fill="none" />
    <line x1="280" y1="448" x2="328" y2="448" fill="none" />
    <!-- Row 5: col 6 (═) -->
    <line x1="328" y1="424" x2="376" y2="424" fill="none" />
    <line x1="328" y1="448" x2="376" y2="448" fill="none" />
    <!-- Row 5: col 7 (╝) -->
    <line x1="396" y1="400" x2="396" y2="448" fill="none" />
    <line x1="396" y1="448" x2="376" y2="448" fill="none" />
    <line x1="384" y1="400" x2="384" y2="424" fill="none" />
    <line x1="384" y1="424" x2="376" y2="424" fill="none" />
  </g>
</svg>
